<svg width="31" height="48" viewBox="0 0 31 48" fill="none" xmlns="http://www.w3.org/2000/svg">
<path d="M0 0H27C29.2091 0 31 1.79086 31 4V48H4C1.79086 48 0 46.2091 0 44V0Z" fill="#B71F1D"/>
<path d="M12.1872 10.11H8.93924V19H7.58824V10.11H4.33324V8.969H12.1872V10.11ZM14.8617 11.797C15.3797 11.797 15.8464 11.8833 16.2617 12.056C16.6771 12.2287 17.0317 12.4737 17.3257 12.791C17.6197 13.1083 17.8437 13.4933 17.9977 13.946C18.1564 14.394 18.2357 14.8957 18.2357 15.451C18.2357 16.011 18.1564 16.515 17.9977 16.963C17.8437 17.411 17.6197 17.7937 17.3257 18.111C17.0317 18.4283 16.6771 18.6733 16.2617 18.846C15.8464 19.014 15.3797 19.098 14.8617 19.098C14.3391 19.098 13.8677 19.014 13.4477 18.846C13.0324 18.6733 12.6777 18.4283 12.3837 18.111C12.0897 17.7937 11.8634 17.411 11.7047 16.963C11.5507 16.515 11.4737 16.011 11.4737 15.451C11.4737 14.8957 11.5507 14.394 11.7047 13.946C11.8634 13.4933 12.0897 13.1083 12.3837 12.791C12.6777 12.4737 13.0324 12.2287 13.4477 12.056C13.8677 11.8833 14.3391 11.797 14.8617 11.797ZM14.8617 18.125C15.5617 18.125 16.0844 17.8917 16.4297 17.425C16.7751 16.9537 16.9477 16.298 16.9477 15.458C16.9477 14.6133 16.7751 13.9553 16.4297 13.484C16.0844 13.0127 15.5617 12.777 14.8617 12.777C14.5071 12.777 14.1967 12.8377 13.9307 12.959C13.6694 13.0803 13.4501 13.2553 13.2727 13.484C13.1001 13.7127 12.9694 13.995 12.8807 14.331C12.7967 14.6623 12.7547 15.038 12.7547 15.458C12.7547 16.298 12.9274 16.9537 13.2727 17.425C13.6227 17.8917 14.1524 18.125 14.8617 18.125ZM21.2691 17.292C21.4978 17.6 21.7474 17.817 22.0181 17.943C22.2888 18.069 22.5921 18.132 22.9281 18.132C23.5908 18.132 24.0994 17.8963 24.4541 17.425C24.8088 16.9537 24.9861 16.2817 24.9861 15.409C24.9861 14.947 24.9441 14.5503 24.8601 14.219C24.7808 13.8877 24.6641 13.617 24.5101 13.407C24.3561 13.1923 24.1671 13.036 23.9431 12.938C23.7191 12.84 23.4648 12.791 23.1801 12.791C22.7741 12.791 22.4171 12.8843 22.1091 13.071C21.8058 13.2577 21.5258 13.5213 21.2691 13.862V17.292ZM21.2061 13.008C21.5048 12.6393 21.8501 12.343 22.2421 12.119C22.6341 11.895 23.0821 11.783 23.5861 11.783C23.9968 11.783 24.3678 11.8623 24.6991 12.021C25.0304 12.175 25.3128 12.406 25.5461 12.714C25.7794 13.0173 25.9591 13.3953 26.0851 13.848C26.2111 14.3007 26.2741 14.821 26.2741 15.409C26.2741 15.9317 26.2041 16.4193 26.0641 16.872C25.9241 17.32 25.7211 17.7097 25.4551 18.041C25.1938 18.3677 24.8718 18.6267 24.4891 18.818C24.1111 19.0047 23.6841 19.098 23.2081 19.098C22.7741 19.098 22.4008 19.0257 22.0881 18.881C21.7801 18.7317 21.5071 18.5263 21.2691 18.265V21.401H20.0161V11.909H20.7651C20.9424 11.909 21.0521 11.9953 21.0941 12.168L21.2061 13.008ZM14.4049 38.048V39H9.02891V38.048H11.1779V31.209C11.1779 31.0037 11.1849 30.796 11.1989 30.586L9.41391 32.119C9.35324 32.1703 9.29257 32.203 9.23191 32.217C9.17124 32.2263 9.11524 32.2263 9.06391 32.217C9.01257 32.2077 8.96357 32.189 8.91691 32.161C8.87491 32.133 8.84224 32.1027 8.81891 32.07L8.42691 31.531L11.4159 28.948H12.4309V38.048H14.4049ZM23.3 33.988C23.3 34.8653 23.2043 35.626 23.013 36.27C22.8263 36.9093 22.5697 37.439 22.243 37.859C21.9163 38.279 21.529 38.5917 21.081 38.797C20.6377 39.0023 20.1617 39.105 19.653 39.105C19.1397 39.105 18.6613 39.0023 18.218 38.797C17.7793 38.5917 17.3967 38.279 17.07 37.859C16.7433 37.439 16.4867 36.9093 16.3 36.27C16.1133 35.626 16.02 34.8653 16.02 33.988C16.02 33.1107 16.1133 32.35 16.3 31.706C16.4867 31.062 16.7433 30.53 17.07 30.11C17.3967 29.6853 17.7793 29.3703 18.218 29.165C18.6613 28.9597 19.1397 28.857 19.653 28.857C20.1617 28.857 20.6377 28.9597 21.081 29.165C21.529 29.3703 21.9163 29.6853 22.243 30.11C22.5697 30.53 22.8263 31.062 23.013 31.706C23.2043 32.35 23.3 33.1107 23.3 33.988ZM22.005 33.988C22.005 33.2227 21.9397 32.581 21.809 32.063C21.683 31.5403 21.5103 31.1203 21.291 30.803C21.0763 30.4857 20.8267 30.2593 20.542 30.124C20.2573 29.984 19.961 29.914 19.653 29.914C19.345 29.914 19.0487 29.984 18.764 30.124C18.4793 30.2593 18.2297 30.4857 18.015 30.803C17.8003 31.1203 17.6277 31.5403 17.497 32.063C17.371 32.581 17.308 33.2227 17.308 33.988C17.308 34.7533 17.371 35.395 17.497 35.913C17.6277 36.431 17.8003 36.8487 18.015 37.166C18.2297 37.4833 18.4793 37.712 18.764 37.852C19.0487 37.9873 19.345 38.055 19.653 38.055C19.961 38.055 20.2573 37.9873 20.542 37.852C20.8267 37.712 21.0763 37.4833 21.291 37.166C21.5103 36.8487 21.683 36.431 21.809 35.913C21.9397 35.395 22.005 34.7533 22.005 33.988Z" fill="white"/>
</svg>
